<svg width="208" height="67" viewBox="0 0 208 67" fill="none" xmlns="http://www.w3.org/2000/svg">
<g filter="url(#filter0_d)">
<g filter="url(#filter1_d)">
<rect x="4.00024" y="3.00012" width="200" height="56" rx="28" fill="#E70103"/>
</g>
<g filter="url(#filter2_dd)">
<path d="M73.9002 33.9941H67.6362L66.3402 37.0001H64.0002L69.7962 24.1841H71.6862L77.5002 37.0001H75.1782L73.9002 33.9941ZM73.1262 32.1941L70.7682 26.7041L68.4102 32.1941H73.1262ZM83.9082 27.6761C84.7002 27.6761 85.3962 27.8741 85.9962 28.2701C86.6082 28.6541 87.0822 29.2001 87.4182 29.9081C87.7542 30.6161 87.9222 31.4381 87.9222 32.3741C87.9222 33.3101 87.7482 34.1441 87.4002 34.8761C87.0642 35.5961 86.5902 36.1541 85.9782 36.5501C85.3782 36.9461 84.6882 37.1441 83.9082 37.1441C83.2362 37.1441 82.6362 37.0001 82.1082 36.7121C81.5922 36.4241 81.2022 36.0221 80.9382 35.5061V37.0001H78.7242V23.7521H80.9562V29.2781C81.2322 28.7741 81.6282 28.3841 82.1442 28.1081C82.6602 27.8201 83.2482 27.6761 83.9082 27.6761ZM83.3142 35.3801C84.0582 35.3801 84.6342 35.1161 85.0422 34.5881C85.4502 34.0601 85.6542 33.3221 85.6542 32.3741C85.6542 31.4381 85.4502 30.7181 85.0422 30.2141C84.6342 29.6981 84.0522 29.4401 83.2962 29.4401C82.5402 29.4401 81.9582 29.6981 81.5502 30.2141C81.1422 30.7301 80.9382 31.4621 80.9382 32.4101C80.9382 33.3701 81.1422 34.1081 81.5502 34.6241C81.9582 35.1281 82.5462 35.3801 83.3142 35.3801ZM94.0084 37.1441C93.0844 37.1441 92.2684 36.9521 91.5604 36.5681C90.8644 36.1841 90.3244 35.6381 89.9404 34.9301C89.5684 34.2101 89.3824 33.3701 89.3824 32.4101C89.3824 31.4501 89.5684 30.6161 89.9404 29.9081C90.3244 29.1881 90.8644 28.6361 91.5604 28.2521C92.2684 27.8681 93.0844 27.6761 94.0084 27.6761C94.9204 27.6761 95.7244 27.8681 96.4204 28.2521C97.1164 28.6361 97.6504 29.1881 98.0224 29.9081C98.4064 30.6161 98.5984 31.4501 98.5984 32.4101C98.5984 33.3701 98.4064 34.2101 98.0224 34.9301C97.6504 35.6381 97.1164 36.1841 96.4204 36.5681C95.7244 36.9521 94.9204 37.1441 94.0084 37.1441ZM93.9904 35.3801C94.7584 35.3801 95.3404 35.1341 95.7364 34.6421C96.1444 34.1381 96.3484 33.3941 96.3484 32.4101C96.3484 31.4381 96.1444 30.7001 95.7364 30.1961C95.3284 29.6801 94.7524 29.4221 94.0084 29.4221C93.2524 29.4221 92.6704 29.6801 92.2624 30.1961C91.8544 30.7001 91.6504 31.4381 91.6504 32.4101C91.6504 33.3941 91.8484 34.1381 92.2444 34.6421C92.6524 35.1341 93.2344 35.3801 93.9904 35.3801ZM108.819 27.9101V37.0001H106.623V35.5961C106.335 36.1001 105.951 36.4841 105.471 36.7481C104.991 37.0121 104.439 37.1441 103.815 37.1441C101.595 37.1441 100.485 35.8961 100.485 33.4001V27.9101H102.717V33.4181C102.717 34.0781 102.849 34.5641 103.113 34.8761C103.389 35.1881 103.809 35.3441 104.373 35.3441C105.033 35.3441 105.561 35.1281 105.957 34.6961C106.353 34.2641 106.551 33.6881 106.551 32.9681V27.9101H108.819ZM114.123 29.6021V33.6701C114.123 34.7381 114.621 35.2721 115.617 35.2721C115.893 35.2721 116.193 35.2241 116.517 35.1281V36.9101C116.121 37.0541 115.641 37.1261 115.077 37.1261C114.045 37.1261 113.253 36.8381 112.701 36.2621C112.149 35.6861 111.873 34.8581 111.873 33.7781V29.6021H110.127V27.9101H111.873V25.6961L114.123 24.9401V27.9101H116.535V29.6021H114.123ZM128.475 37.1621C126.711 37.1621 125.373 36.7121 124.461 35.8121C123.561 34.9001 123.111 33.5681 123.111 31.8161V24.1841H125.397V31.9421C125.397 33.0461 125.655 33.8861 126.171 34.4621C126.687 35.0261 127.455 35.3081 128.475 35.3081C129.471 35.3081 130.227 35.0201 130.743 34.4441C131.271 33.8681 131.535 33.0341 131.535 31.9421V24.1841H133.821V31.8161C133.821 33.5561 133.365 34.8821 132.453 35.7941C131.541 36.7061 130.215 37.1621 128.475 37.1621ZM139.675 37.1441C138.031 37.1441 136.723 36.7601 135.751 35.9921L136.381 34.4081C137.353 35.1281 138.463 35.4881 139.711 35.4881C140.251 35.4881 140.665 35.3981 140.953 35.2181C141.253 35.0381 141.403 34.7861 141.403 34.4621C141.403 34.1861 141.301 33.9701 141.097 33.8141C140.893 33.6461 140.545 33.5021 140.053 33.3821L138.541 33.0401C136.885 32.6801 136.057 31.8341 136.057 30.5021C136.057 29.9501 136.213 29.4641 136.525 29.0441C136.837 28.6121 137.275 28.2761 137.839 28.0361C138.403 27.7961 139.057 27.6761 139.801 27.6761C140.449 27.6761 141.073 27.7781 141.673 27.9821C142.273 28.1741 142.801 28.4561 143.257 28.8281L142.591 30.3581C141.679 29.6861 140.743 29.3501 139.783 29.3501C139.267 29.3501 138.865 29.4461 138.577 29.6381C138.289 29.8301 138.145 30.0941 138.145 30.4301C138.145 30.6941 138.229 30.9041 138.397 31.0601C138.577 31.2161 138.877 31.3481 139.297 31.4561L140.845 31.7981C141.745 32.0021 142.399 32.3201 142.807 32.7521C143.227 33.1721 143.437 33.7241 143.437 34.4081C143.437 35.2481 143.101 35.9141 142.429 36.4061C141.757 36.8981 140.839 37.1441 139.675 37.1441Z" fill="white"/>
</g>
</g>
<defs>
<filter id="filter0_d" x="0.000244141" y="3.00012" width="208" height="64" filterUnits="userSpaceOnUse" color-interpolation-filters="sRGB">
<feFlood flood-opacity="0" result="BackgroundImageFix"/>
<feColorMatrix in="SourceAlpha" type="matrix" values="0 0 0 0 0 0 0 0 0 0 0 0 0 0 0 0 0 0 127 0"/>
<feOffset dy="4"/>
<feGaussianBlur stdDeviation="2"/>
<feColorMatrix type="matrix" values="0 0 0 0 0 0 0 0 0 0 0 0 0 0 0 0 0 0 0.25 0"/>
<feBlend mode="normal" in2="BackgroundImageFix" result="effect1_dropShadow"/>
<feBlend mode="normal" in="SourceGraphic" in2="effect1_dropShadow" result="shape"/>
</filter>
<filter id="filter1_d" x="0.000244141" y="3.00012" width="208" height="64" filterUnits="userSpaceOnUse" color-interpolation-filters="sRGB">
<feFlood flood-opacity="0" result="BackgroundImageFix"/>
<feColorMatrix in="SourceAlpha" type="matrix" values="0 0 0 0 0 0 0 0 0 0 0 0 0 0 0 0 0 0 127 0"/>
<feOffset dy="4"/>
<feGaussianBlur stdDeviation="2"/>
<feColorMatrix type="matrix" values="0 0 0 0 0 0 0 0 0 0 0 0 0 0 0 0 0 0 0.25 0"/>
<feBlend mode="normal" in2="BackgroundImageFix" result="effect1_dropShadow"/>
<feBlend mode="normal" in="SourceGraphic" in2="effect1_dropShadow" result="shape"/>
</filter>
<filter id="filter2_dd" x="60.0002" y="23.7521" width="87.4371" height="21.41" filterUnits="userSpaceOnUse" color-interpolation-filters="sRGB">
<feFlood flood-opacity="0" result="BackgroundImageFix"/>
<feColorMatrix in="SourceAlpha" type="matrix" values="0 0 0 0 0 0 0 0 0 0 0 0 0 0 0 0 0 0 127 0"/>
<feOffset dy="4"/>
<feGaussianBlur stdDeviation="2"/>
<feColorMatrix type="matrix" values="0 0 0 0 0 0 0 0 0 0 0 0 0 0 0 0 0 0 0.25 0"/>
<feBlend mode="normal" in2="BackgroundImageFix" result="effect1_dropShadow"/>
<feColorMatrix in="SourceAlpha" type="matrix" values="0 0 0 0 0 0 0 0 0 0 0 0 0 0 0 0 0 0 127 0"/>
<feOffset dy="4"/>
<feGaussianBlur stdDeviation="2"/>
<feColorMatrix type="matrix" values="0 0 0 0 0 0 0 0 0 0 0 0 0 0 0 0 0 0 0.25 0"/>
<feBlend mode="normal" in2="effect1_dropShadow" result="effect2_dropShadow"/>
<feBlend mode="normal" in="SourceGraphic" in2="effect2_dropShadow" result="shape"/>
</filter>
</defs>
</svg>
