<svg width="208" height="67" viewBox="0 0 208 67" fill="none" xmlns="http://www.w3.org/2000/svg">
<g filter="url(#filter0_d)">
<rect x="4" y="3" width="200" height="56" rx="28" fill="#E70103"/>
<g filter="url(#filter1_d)">
<path d="M44.2 37.162C42.94 37.162 41.836 36.892 40.888 36.352C39.952 35.812 39.232 35.05 38.728 34.066C38.224 33.07 37.972 31.906 37.972 30.574C37.972 29.254 38.224 28.102 38.728 27.118C39.232 26.122 39.952 25.36 40.888 24.832C41.836 24.292 42.94 24.022 44.2 24.022C45.064 24.022 45.874 24.16 46.63 24.436C47.398 24.7 48.034 25.072 48.538 25.552L47.782 27.244C47.206 26.776 46.63 26.44 46.054 26.236C45.49 26.02 44.884 25.912 44.236 25.912C43 25.912 42.04 26.314 41.356 27.118C40.684 27.922 40.348 29.074 40.348 30.574C40.348 32.086 40.684 33.25 41.356 34.066C42.028 34.87 42.988 35.272 44.236 35.272C44.884 35.272 45.49 35.17 46.054 34.966C46.63 34.75 47.206 34.408 47.782 33.94L48.538 35.632C48.034 36.112 47.398 36.49 46.63 36.766C45.874 37.03 45.064 37.162 44.2 37.162ZM55.7483 27.676C57.9203 27.676 59.0063 28.924 59.0063 31.42V37H56.7563V31.528C56.7563 30.808 56.6183 30.286 56.3423 29.962C56.0663 29.626 55.6403 29.458 55.0643 29.458C54.3803 29.458 53.8283 29.68 53.4083 30.124C52.9883 30.556 52.7783 31.132 52.7783 31.852V37H50.5463V23.752H52.7783V29.224C53.0903 28.732 53.5043 28.354 54.0203 28.09C54.5363 27.814 55.1123 27.676 55.7483 27.676ZM69.348 32.572H63.084C63.132 33.544 63.372 34.264 63.804 34.732C64.248 35.188 64.902 35.416 65.766 35.416C66.762 35.416 67.686 35.092 68.538 34.444L69.186 35.992C68.754 36.34 68.22 36.622 67.584 36.838C66.96 37.042 66.324 37.144 65.676 37.144C64.188 37.144 63.018 36.724 62.166 35.884C61.314 35.044 60.888 33.892 60.888 32.428C60.888 31.504 61.074 30.682 61.446 29.962C61.818 29.242 62.34 28.684 63.012 28.288C63.684 27.88 64.446 27.676 65.298 27.676C66.546 27.676 67.53 28.084 68.25 28.9C68.982 29.704 69.348 30.814 69.348 32.23V32.572ZM65.352 29.296C64.752 29.296 64.26 29.476 63.876 29.836C63.504 30.184 63.264 30.694 63.156 31.366H67.386C67.314 30.682 67.104 30.166 66.756 29.818C66.42 29.47 65.952 29.296 65.352 29.296ZM75.3753 37.144C74.4273 37.144 73.6053 36.952 72.9093 36.568C72.2133 36.184 71.6793 35.644 71.3073 34.948C70.9353 34.24 70.7493 33.412 70.7493 32.464C70.7493 31.516 70.9413 30.682 71.3253 29.962C71.7213 29.242 72.2733 28.684 72.9813 28.288C73.7013 27.88 74.5293 27.676 75.4653 27.676C76.1133 27.676 76.7373 27.778 77.3373 27.982C77.9493 28.186 78.4353 28.468 78.7953 28.828L78.1653 30.412C77.7813 30.1 77.3733 29.866 76.9413 29.71C76.5093 29.542 76.0833 29.458 75.6633 29.458C74.8473 29.458 74.2113 29.716 73.7553 30.232C73.2993 30.736 73.0713 31.468 73.0713 32.428C73.0713 33.388 73.2933 34.12 73.7373 34.624C74.1933 35.128 74.8353 35.38 75.6633 35.38C76.0833 35.38 76.5093 35.296 76.9413 35.128C77.3733 34.96 77.7813 34.72 78.1653 34.408L78.7953 35.992C78.4113 36.352 77.9133 36.634 77.3013 36.838C76.6893 37.042 76.0473 37.144 75.3753 37.144ZM86.516 37L82.538 32.806V37H80.306V23.752H82.538V31.924L86.282 27.928H89L84.914 32.266L89.324 37H86.516ZM95.3215 24.184H100.884C102.264 24.184 103.338 24.52 104.106 25.192C104.874 25.852 105.258 26.758 105.258 27.91C105.258 29.062 104.868 29.974 104.088 30.646C103.32 31.318 102.252 31.654 100.884 31.654H97.6435V37H95.3215V24.184ZM100.614 29.854C101.418 29.854 102.024 29.692 102.432 29.368C102.852 29.032 103.062 28.552 103.062 27.928C103.062 27.292 102.858 26.812 102.45 26.488C102.042 26.152 101.43 25.984 100.614 25.984H97.6435V29.854H100.614ZM111.868 27.694C112.216 27.694 112.516 27.742 112.768 27.838L112.75 29.89C112.366 29.734 111.97 29.656 111.562 29.656C110.794 29.656 110.206 29.878 109.798 30.322C109.402 30.766 109.204 31.354 109.204 32.086V37H106.972V30.484C106.972 29.524 106.924 28.666 106.828 27.91H108.934L109.114 29.512C109.342 28.924 109.702 28.474 110.194 28.162C110.686 27.85 111.244 27.694 111.868 27.694ZM117.967 37.144C117.043 37.144 116.227 36.952 115.519 36.568C114.823 36.184 114.283 35.638 113.899 34.93C113.527 34.21 113.341 33.37 113.341 32.41C113.341 31.45 113.527 30.616 113.899 29.908C114.283 29.188 114.823 28.636 115.519 28.252C116.227 27.868 117.043 27.676 117.967 27.676C118.879 27.676 119.683 27.868 120.379 28.252C121.075 28.636 121.609 29.188 121.981 29.908C122.365 30.616 122.557 31.45 122.557 32.41C122.557 33.37 122.365 34.21 121.981 34.93C121.609 35.638 121.075 36.184 120.379 36.568C119.683 36.952 118.879 37.144 117.967 37.144ZM117.949 35.38C118.717 35.38 119.299 35.134 119.695 34.642C120.103 34.138 120.307 33.394 120.307 32.41C120.307 31.438 120.103 30.7 119.695 30.196C119.287 29.68 118.711 29.422 117.967 29.422C117.211 29.422 116.629 29.68 116.221 30.196C115.813 30.7 115.609 31.438 115.609 32.41C115.609 33.394 115.807 34.138 116.203 34.642C116.611 35.134 117.193 35.38 117.949 35.38ZM133.191 23.752V37H130.977V35.542C130.701 36.046 130.305 36.442 129.789 36.73C129.273 37.006 128.685 37.144 128.025 37.144C127.245 37.144 126.549 36.946 125.937 36.55C125.325 36.154 124.845 35.596 124.497 34.876C124.161 34.144 123.993 33.31 123.993 32.374C123.993 31.438 124.161 30.616 124.497 29.908C124.833 29.2 125.307 28.654 125.919 28.27C126.531 27.874 127.233 27.676 128.025 27.676C128.673 27.676 129.249 27.814 129.753 28.09C130.269 28.354 130.665 28.732 130.941 29.224V23.752H133.191ZM128.619 35.38C129.363 35.38 129.939 35.122 130.347 34.606C130.767 34.09 130.977 33.358 130.977 32.41C130.977 31.462 130.773 30.73 130.365 30.214C129.957 29.698 129.381 29.44 128.637 29.44C127.881 29.44 127.293 29.698 126.873 30.214C126.465 30.718 126.261 31.438 126.261 32.374C126.261 33.322 126.465 34.06 126.873 34.588C127.293 35.116 127.875 35.38 128.619 35.38ZM143.922 27.91V37H141.726V35.596C141.438 36.1 141.054 36.484 140.574 36.748C140.094 37.012 139.542 37.144 138.918 37.144C136.698 37.144 135.588 35.896 135.588 33.4V27.91H137.82V33.418C137.82 34.078 137.952 34.564 138.216 34.876C138.492 35.188 138.912 35.344 139.476 35.344C140.136 35.344 140.664 35.128 141.06 34.696C141.456 34.264 141.654 33.688 141.654 32.968V27.91H143.922ZM150.487 37.144C149.539 37.144 148.717 36.952 148.021 36.568C147.325 36.184 146.791 35.644 146.419 34.948C146.047 34.24 145.861 33.412 145.861 32.464C145.861 31.516 146.053 30.682 146.437 29.962C146.833 29.242 147.385 28.684 148.093 28.288C148.813 27.88 149.641 27.676 150.577 27.676C151.225 27.676 151.849 27.778 152.449 27.982C153.061 28.186 153.547 28.468 153.907 28.828L153.277 30.412C152.893 30.1 152.485 29.866 152.053 29.71C151.621 29.542 151.195 29.458 150.775 29.458C149.959 29.458 149.323 29.716 148.867 30.232C148.411 30.736 148.183 31.468 148.183 32.428C148.183 33.388 148.405 34.12 148.849 34.624C149.305 35.128 149.947 35.38 150.775 35.38C151.195 35.38 151.621 35.296 152.053 35.128C152.485 34.96 152.893 34.72 153.277 34.408L153.907 35.992C153.523 36.352 153.025 36.634 152.413 36.838C151.801 37.042 151.159 37.144 150.487 37.144ZM158.332 29.602V33.67C158.332 34.738 158.83 35.272 159.826 35.272C160.102 35.272 160.402 35.224 160.726 35.128V36.91C160.33 37.054 159.85 37.126 159.286 37.126C158.254 37.126 157.462 36.838 156.91 36.262C156.358 35.686 156.082 34.858 156.082 33.778V29.602H154.336V27.91H156.082V25.696L158.332 24.94V27.91H160.744V29.602H158.332ZM165.62 37.144C163.976 37.144 162.668 36.76 161.696 35.992L162.326 34.408C163.298 35.128 164.408 35.488 165.656 35.488C166.196 35.488 166.61 35.398 166.898 35.218C167.198 35.038 167.348 34.786 167.348 34.462C167.348 34.186 167.246 33.97 167.042 33.814C166.838 33.646 166.49 33.502 165.998 33.382L164.486 33.04C162.83 32.68 162.002 31.834 162.002 30.502C162.002 29.95 162.158 29.464 162.47 29.044C162.782 28.612 163.22 28.276 163.784 28.036C164.348 27.796 165.002 27.676 165.746 27.676C166.394 27.676 167.018 27.778 167.618 27.982C168.218 28.174 168.746 28.456 169.202 28.828L168.536 30.358C167.624 29.686 166.688 29.35 165.728 29.35C165.212 29.35 164.81 29.446 164.522 29.638C164.234 29.83 164.09 30.094 164.09 30.43C164.09 30.694 164.174 30.904 164.342 31.06C164.522 31.216 164.822 31.348 165.242 31.456L166.79 31.798C167.69 32.002 168.344 32.32 168.752 32.752C169.172 33.172 169.382 33.724 169.382 34.408C169.382 35.248 169.046 35.914 168.374 36.406C167.702 36.898 166.784 37.144 165.62 37.144Z" fill="white"/>
</g>
</g>
<defs>
<filter id="filter0_d" x="0" y="3" width="208" height="64" filterUnits="userSpaceOnUse" color-interpolation-filters="sRGB">
<feFlood flood-opacity="0" result="BackgroundImageFix"/>
<feColorMatrix in="SourceAlpha" type="matrix" values="0 0 0 0 0 0 0 0 0 0 0 0 0 0 0 0 0 0 127 0"/>
<feOffset dy="4"/>
<feGaussianBlur stdDeviation="2"/>
<feColorMatrix type="matrix" values="0 0 0 0 0 0 0 0 0 0 0 0 0 0 0 0 0 0 0.25 0"/>
<feBlend mode="normal" in2="BackgroundImageFix" result="effect1_dropShadow"/>
<feBlend mode="normal" in="SourceGraphic" in2="effect1_dropShadow" result="shape"/>
</filter>
<filter id="filter1_d" x="33.972" y="23.752" width="139.41" height="21.41" filterUnits="userSpaceOnUse" color-interpolation-filters="sRGB">
<feFlood flood-opacity="0" result="BackgroundImageFix"/>
<feColorMatrix in="SourceAlpha" type="matrix" values="0 0 0 0 0 0 0 0 0 0 0 0 0 0 0 0 0 0 127 0"/>
<feOffset dy="4"/>
<feGaussianBlur stdDeviation="2"/>
<feColorMatrix type="matrix" values="0 0 0 0 0 0 0 0 0 0 0 0 0 0 0 0 0 0 0.25 0"/>
<feBlend mode="normal" in2="BackgroundImageFix" result="effect1_dropShadow"/>
<feBlend mode="normal" in="SourceGraphic" in2="effect1_dropShadow" result="shape"/>
</filter>
</defs>
</svg>
