<svg width="57" height="115" viewBox="0 0 57 115" fill="none" xmlns="http://www.w3.org/2000/svg">
<g opacity="0.3">
<mask id="mask0" mask-type="alpha" maskUnits="userSpaceOnUse" x="15" y="0" width="12" height="11">
<path d="M21.0716 10.425C23.9592 10.425 26.3 8.09121 26.3 5.21245C26.3 2.33368 23.9592 0 21.0716 0C18.184 0 15.8432 2.33368 15.8432 5.21245C15.8432 8.09121 18.184 10.425 21.0716 10.425Z" fill="url(#paint0_linear)"/>
</mask>
<g mask="url(#mask0)">
<path d="M21.0716 10.425C23.9592 10.425 26.3 8.09121 26.3 5.21245C26.3 2.33368 23.9592 0 21.0716 0C18.184 0 15.8432 2.33368 15.8432 5.21245C15.8432 8.09121 18.184 10.425 21.0716 10.425Z" fill="url(#paint1_linear)"/>
</g>
<mask id="mask1" mask-type="alpha" maskUnits="userSpaceOnUse" x="46" y="0" width="11" height="11">
<path d="M51.3526 10.425C54.2402 10.425 56.581 8.09121 56.581 5.21245C56.581 2.33368 54.2402 0 51.3526 0C48.4651 0 46.1243 2.33368 46.1243 5.21245C46.1243 8.09121 48.4651 10.425 51.3526 10.425Z" fill="url(#paint2_linear)"/>
</mask>
<g mask="url(#mask1)">
<path d="M51.3526 10.425C54.2402 10.425 56.581 8.09121 56.581 5.21245C56.581 2.33368 54.2402 0 51.3526 0C48.4651 0 46.1243 2.33368 46.1243 5.21245C46.1243 8.09121 48.4651 10.425 51.3526 10.425Z" fill="url(#paint3_linear)"/>
</g>
<mask id="mask2" mask-type="alpha" maskUnits="userSpaceOnUse" x="15" y="26" width="12" height="11">
<path d="M21.0716 36.5958C23.9592 36.5958 26.3 34.2621 26.3 31.3834C26.3 28.5046 23.9592 26.171 21.0716 26.171C18.184 26.171 15.8432 28.5046 15.8432 31.3834C15.8432 34.2621 18.184 36.5958 21.0716 36.5958Z" fill="url(#paint4_linear)"/>
</mask>
<g mask="url(#mask2)">
<path d="M21.0716 36.5958C23.9592 36.5958 26.3 34.2621 26.3 31.3834C26.3 28.5046 23.9592 26.171 21.0716 26.171C18.184 26.171 15.8432 28.5046 15.8432 31.3834C15.8432 34.2621 18.184 36.5958 21.0716 36.5958Z" fill="url(#paint5_linear)"/>
</g>
<mask id="mask3" mask-type="alpha" maskUnits="userSpaceOnUse" x="46" y="26" width="11" height="11">
<path d="M51.3526 36.5958C54.2402 36.5958 56.581 34.2621 56.581 31.3834C56.581 28.5046 54.2402 26.171 51.3526 26.171C48.4651 26.171 46.1243 28.5046 46.1243 31.3834C46.1243 34.2621 48.4651 36.5958 51.3526 36.5958Z" fill="url(#paint6_linear)"/>
</mask>
<g mask="url(#mask3)">
<path d="M51.3526 36.5958C54.2402 36.5958 56.581 34.2621 56.581 31.3834C56.581 28.5046 54.2402 26.171 51.3526 26.171C48.4651 26.171 46.1243 28.5046 46.1243 31.3834C46.1243 34.2621 48.4651 36.5958 51.3526 36.5958Z" fill="url(#paint7_linear)"/>
</g>
<mask id="mask4" mask-type="alpha" maskUnits="userSpaceOnUse" x="15" y="52" width="12" height="11">
<path d="M21.0716 62.7125C23.9592 62.7125 26.3 60.3788 26.3 57.5C26.3 54.6212 23.9592 52.2875 21.0716 52.2875C18.184 52.2875 15.8432 54.6212 15.8432 57.5C15.8432 60.3788 18.184 62.7125 21.0716 62.7125Z" fill="url(#paint8_linear)"/>
</mask>
<g mask="url(#mask4)">
<path d="M21.0716 62.7125C23.9592 62.7125 26.3 60.3788 26.3 57.5C26.3 54.6212 23.9592 52.2875 21.0716 52.2875C18.184 52.2875 15.8432 54.6212 15.8432 57.5C15.8432 60.3788 18.184 62.7125 21.0716 62.7125Z" fill="url(#paint9_linear)"/>
</g>
<mask id="mask5" mask-type="alpha" maskUnits="userSpaceOnUse" x="46" y="52" width="11" height="11">
<path d="M51.3526 62.7125C54.2402 62.7125 56.581 60.3788 56.581 57.5C56.581 54.6212 54.2402 52.2875 51.3526 52.2875C48.4651 52.2875 46.1243 54.6212 46.1243 57.5C46.1243 60.3788 48.4651 62.7125 51.3526 62.7125Z" fill="url(#paint10_linear)"/>
</mask>
<g mask="url(#mask5)">
<path d="M51.3526 62.7125C54.2402 62.7125 56.581 60.3788 56.581 57.5C56.581 54.6212 54.2402 52.2875 51.3526 52.2875C48.4651 52.2875 46.1243 54.6212 46.1243 57.5C46.1243 60.3788 48.4651 62.7125 51.3526 62.7125Z" fill="url(#paint11_linear)"/>
</g>
<mask id="mask6" mask-type="alpha" maskUnits="userSpaceOnUse" x="15" y="78" width="12" height="11">
<path d="M21.0716 88.8834C23.9592 88.8834 26.3 86.5496 26.3 83.6709C26.3 80.7921 23.9592 78.4584 21.0716 78.4584C18.184 78.4584 15.8432 80.7921 15.8432 83.6709C15.8432 86.5496 18.184 88.8834 21.0716 88.8834Z" fill="url(#paint12_linear)"/>
</mask>
<g mask="url(#mask6)">
<path d="M21.0716 88.8834C23.9592 88.8834 26.3 86.5496 26.3 83.6709C26.3 80.7921 23.9592 78.4584 21.0716 78.4584C18.184 78.4584 15.8432 80.7921 15.8432 83.6709C15.8432 86.5496 18.184 88.8834 21.0716 88.8834Z" fill="url(#paint13_linear)"/>
</g>
<mask id="mask7" mask-type="alpha" maskUnits="userSpaceOnUse" x="46" y="78" width="11" height="11">
<path d="M51.3526 88.8834C54.2402 88.8834 56.581 86.5496 56.581 83.6709C56.581 80.7921 54.2402 78.4584 51.3526 78.4584C48.4651 78.4584 46.1243 80.7921 46.1243 83.6709C46.1243 86.5496 48.4651 88.8834 51.3526 88.8834Z" fill="url(#paint14_linear)"/>
</mask>
<g mask="url(#mask7)">
<path d="M51.3526 88.8834C54.2402 88.8834 56.581 86.5496 56.581 83.6709C56.581 80.7921 54.2402 78.4584 51.3526 78.4584C48.4651 78.4584 46.1243 80.7921 46.1243 83.6709C46.1243 86.5496 48.4651 88.8834 51.3526 88.8834Z" fill="url(#paint15_linear)"/>
</g>
<mask id="mask8" mask-type="alpha" maskUnits="userSpaceOnUse" x="15" y="104" width="12" height="11">
<path d="M21.0716 115C23.9592 115 26.3 112.666 26.3 109.788C26.3 106.909 23.9592 104.575 21.0716 104.575C18.184 104.575 15.8432 106.909 15.8432 109.788C15.8432 112.666 18.184 115 21.0716 115Z" fill="url(#paint16_linear)"/>
</mask>
<g mask="url(#mask8)">
<path d="M21.0716 115C23.9592 115 26.3 112.666 26.3 109.788C26.3 106.909 23.9592 104.575 21.0716 104.575C18.184 104.575 15.8432 106.909 15.8432 109.788C15.8432 112.666 18.184 115 21.0716 115Z" fill="url(#paint17_linear)"/>
</g>
<mask id="mask9" mask-type="alpha" maskUnits="userSpaceOnUse" x="46" y="104" width="11" height="11">
<path d="M51.3526 115C54.2402 115 56.581 112.666 56.581 109.788C56.581 106.909 54.2402 104.575 51.3526 104.575C48.4651 104.575 46.1243 106.909 46.1243 109.788C46.1243 112.666 48.4651 115 51.3526 115Z" fill="url(#paint18_linear)"/>
</mask>
<g mask="url(#mask9)">
<path d="M51.3526 115C54.2402 115 56.581 112.666 56.581 109.788C56.581 106.909 54.2402 104.575 51.3526 104.575C48.4651 104.575 46.1243 106.909 46.1243 109.788C46.1243 112.666 48.4651 115 51.3526 115Z" fill="url(#paint19_linear)"/>
</g>
</g>
<defs>
<linearGradient id="paint0_linear" x1="58.6091" y1="100.259" x2="-12.7925" y2="-81.5444" gradientUnits="userSpaceOnUse">
<stop/>
<stop offset="1" stop-color="white"/>
</linearGradient>
<linearGradient id="paint1_linear" x1="58.6091" y1="100.259" x2="-12.7925" y2="-81.5444" gradientUnits="userSpaceOnUse">
<stop stop-color="#97C3F9"/>
<stop offset="1" stop-color="#93C1F9"/>
</linearGradient>
<linearGradient id="paint2_linear" x1="84.8135" y1="89.9679" x2="13.4119" y2="-91.8359" gradientUnits="userSpaceOnUse">
<stop/>
<stop offset="1" stop-color="white"/>
</linearGradient>
<linearGradient id="paint3_linear" x1="84.8135" y1="89.9679" x2="13.4119" y2="-91.8359" gradientUnits="userSpaceOnUse">
<stop stop-color="#97C3F9"/>
<stop offset="1" stop-color="#93C1F9"/>
</linearGradient>
<linearGradient id="paint4_linear" x1="49.6667" y1="103.771" x2="-21.7337" y2="-78.0318" gradientUnits="userSpaceOnUse">
<stop/>
<stop offset="1" stop-color="white"/>
</linearGradient>
<linearGradient id="paint5_linear" x1="49.6667" y1="103.771" x2="-21.7337" y2="-78.0318" gradientUnits="userSpaceOnUse">
<stop stop-color="#97C3F9"/>
<stop offset="1" stop-color="#93C1F9"/>
</linearGradient>
<linearGradient id="paint6_linear" x1="75.8711" y1="93.4794" x2="4.47073" y2="-88.3231" gradientUnits="userSpaceOnUse">
<stop/>
<stop offset="1" stop-color="white"/>
</linearGradient>
<linearGradient id="paint7_linear" x1="75.8711" y1="93.4794" x2="4.47073" y2="-88.3231" gradientUnits="userSpaceOnUse">
<stop stop-color="#97C3F9"/>
<stop offset="1" stop-color="#93C1F9"/>
</linearGradient>
<linearGradient id="paint8_linear" x1="40.7243" y1="107.283" x2="-30.6773" y2="-74.5204" gradientUnits="userSpaceOnUse">
<stop/>
<stop offset="1" stop-color="white"/>
</linearGradient>
<linearGradient id="paint9_linear" x1="40.7243" y1="107.283" x2="-30.6773" y2="-74.5204" gradientUnits="userSpaceOnUse">
<stop stop-color="#97C3F9"/>
<stop offset="1" stop-color="#93C1F9"/>
</linearGradient>
<linearGradient id="paint10_linear" x1="66.9287" y1="96.9919" x2="-4.47294" y2="-84.8119" gradientUnits="userSpaceOnUse">
<stop/>
<stop offset="1" stop-color="white"/>
</linearGradient>
<linearGradient id="paint11_linear" x1="66.9287" y1="96.9919" x2="-4.47294" y2="-84.8119" gradientUnits="userSpaceOnUse">
<stop stop-color="#97C3F9"/>
<stop offset="1" stop-color="#93C1F9"/>
</linearGradient>
<linearGradient id="paint12_linear" x1="31.782" y1="110.795" x2="-39.6196" y2="-71.0084" gradientUnits="userSpaceOnUse">
<stop/>
<stop offset="1" stop-color="white"/>
</linearGradient>
<linearGradient id="paint13_linear" x1="31.782" y1="110.795" x2="-39.6196" y2="-71.0084" gradientUnits="userSpaceOnUse">
<stop stop-color="#97C3F9"/>
<stop offset="1" stop-color="#93C1F9"/>
</linearGradient>
<linearGradient id="paint14_linear" x1="57.9863" y1="100.504" x2="-13.4153" y2="-81.3" gradientUnits="userSpaceOnUse">
<stop/>
<stop offset="1" stop-color="white"/>
</linearGradient>
<linearGradient id="paint15_linear" x1="57.9863" y1="100.504" x2="-13.4153" y2="-81.3" gradientUnits="userSpaceOnUse">
<stop stop-color="#97C3F9"/>
<stop offset="1" stop-color="#93C1F9"/>
</linearGradient>
<linearGradient id="paint16_linear" x1="22.8397" y1="114.307" x2="-48.562" y2="-67.4964" gradientUnits="userSpaceOnUse">
<stop/>
<stop offset="1" stop-color="white"/>
</linearGradient>
<linearGradient id="paint17_linear" x1="22.8397" y1="114.307" x2="-48.562" y2="-67.4964" gradientUnits="userSpaceOnUse">
<stop stop-color="#97C3F9"/>
<stop offset="1" stop-color="#93C1F9"/>
</linearGradient>
<linearGradient id="paint18_linear" x1="49.044" y1="104.016" x2="-22.3576" y2="-77.7879" gradientUnits="userSpaceOnUse">
<stop/>
<stop offset="1" stop-color="white"/>
</linearGradient>
<linearGradient id="paint19_linear" x1="49.044" y1="104.016" x2="-22.3576" y2="-77.7879" gradientUnits="userSpaceOnUse">
<stop stop-color="#97C3F9"/>
<stop offset="1" stop-color="#93C1F9"/>
</linearGradient>
</defs>
</svg>
